<svg width="26" height="26" viewBox="0 0 26 26" fill="none" xmlns="http://www.w3.org/2000/svg">
<g clip-path="url(#clip0_41_111)">
<path fill-rule="evenodd" clip-rule="evenodd" d="M23.7872 13C23.7872 7.04213 18.9579 2.21277 13 2.21277C7.04213 2.21277 2.21277 7.04213 2.21277 13C2.21277 18.9579 7.04213 23.7872 13 23.7872C18.9579 23.7872 23.7872 18.9579 23.7872 13ZM7.9383 1.0234C9.54255 0.342979 11.2464 0 13 0C14.7536 0 16.4574 0.342979 18.0617 1.0234C19.6106 1.67617 20.9991 2.61106 22.194 3.80596C23.3834 5.00085 24.3238 6.38936 24.9766 7.9383C25.657 9.54255 26 11.2464 26 13C26 14.7536 25.657 16.4574 24.9766 18.0617C24.3238 19.6106 23.3889 20.9991 22.194 22.194C20.9991 23.3834 19.6106 24.3238 18.0617 24.9766C16.4574 25.657 14.7536 26 13 26C11.2464 26 9.54255 25.657 7.9383 24.9766C6.38936 24.3238 5.00085 23.3889 3.80596 22.194C2.6166 20.9991 1.67617 19.6106 1.0234 18.0617C0.342979 16.4574 0 14.7536 0 13C0 11.2464 0.342979 9.54255 1.0234 7.9383C1.67617 6.38936 2.61106 5.00085 3.80596 3.80596C5.00085 2.6166 6.38936 1.67617 7.9383 1.0234ZM4.70231 13C4.70231 8.41962 8.41976 4.70218 13.0002 4.70218C17.5806 4.70218 21.2981 8.41962 21.2981 13C21.2981 17.5805 17.5806 21.2979 13.0002 21.2979C8.41976 21.2979 4.70231 17.5805 4.70231 13ZM11.6172 7.64514C9.23294 8.25918 7.46826 10.4277 7.46826 13C7.46826 15.5724 9.23295 17.7409 11.6172 18.3605L11.6172 7.64514ZM14.3832 7.64514L14.3832 18.3549C16.7674 17.7409 18.5321 15.5724 18.5321 13C18.5321 10.4277 16.7674 8.25918 14.3832 7.64514Z" fill="white"/>
</g>
<defs>
<clipPath id="clip0_41_111">
<rect width="26" height="26" fill="white"/>
</clipPath>
</defs>
</svg>
